<?xml version="1.0" encoding="utf-8"?>
<!-- Generator: Adobe Illustrator 22.0.0, SVG Export Plug-In . SVG Version: 6.00 Build 0)  -->
<svg version="1.1" id="Layer_1" xmlns="http://www.w3.org/2000/svg" xmlns:xlink="http://www.w3.org/1999/xlink" x="0px" y="0px"
	 viewBox="0 0 100.2 100.2" style="enable-background:new 0 0 100.2 100.2;" xml:space="preserve">
<style type="text/css">
	.st0{fill:#FFFFFF;}
	.st1{fill:#8D73A4;}
</style>
<circle class="st0" cx="50.1" cy="50.1" r="47.3"/>
<path class="st1" d="M50.1,0C22.5,0,0,22.5,0,50.1s22.5,50.1,50.1,50.1c27.6,0,50.1-22.5,50.1-50.1S77.8,0,50.1,0z M50.1,96.6
	c-25.6,0-46.5-20.9-46.5-46.5c0-25.6,20.9-46.5,46.5-46.5C69,3.6,85.4,15,92.6,31.2l-4.2,0.7c-2.4-5-5.8-9.7-10-13.4
	c-0.7-0.7-1.9-0.6-2.6,0.1c-0.7,0.7-0.6,1.9,0.1,2.6c3.7,3.3,6.8,7.4,8.9,11.8c-2.3,1.3-3.8,3.8-3.8,6.6v21.1c0,2.8,1.5,5.2,3.8,6.6
	c-6.5,13.2-20,21.7-34.8,21.7c-21.4,0-38.8-17.4-38.8-38.8l0.2-3.6C13.4,26.8,30,11.4,50.1,11.4c7.2,0,14.2,2,20.3,5.7
	c0.8,0.5,2,0.3,2.5-0.6c0.5-0.9,0.3-2-0.6-2.5C65.7,9.9,58,7.7,50.1,7.7c-23.4,0-42.4,19-42.4,42.4s19,42.4,42.4,42.4
	c16.4,0,31.3-9.5,38.3-24.2l4.2,0.7C85.4,85.3,69,96.6,50.1,96.6z M88.1,64.6c-1.9-0.3-3.3-2-3.3-3.9V39.6c0-2,1.4-3.6,3.3-3.9
	l5.9-1c1.7,4.8,2.6,10,2.6,15.5c0,5.4-0.9,10.6-2.6,15.5L88.1,64.6z"/>
</svg>
